<svg width="21" height="20" viewBox="0 0 21 20" fill="none" xmlns="http://www.w3.org/2000/svg">
<path fill-rule="evenodd" clip-rule="evenodd" d="M18.5 10.1894C18.5 9.5985 18.447 9.03032 18.3485 8.48486H10.5V11.7084H14.9849C14.7917 12.75 14.2046 13.6326 13.322 14.2235V16.3144H16.0152C17.5909 14.8637 18.5 12.7273 18.5 10.1894Z" fill="#4285F4"/>
<path fill-rule="evenodd" clip-rule="evenodd" d="M10.5 18.3334C12.75 18.3334 14.6364 17.5872 16.0152 16.3144L13.322 14.2235C12.5758 14.7235 11.6212 15.019 10.5 15.019C8.32956 15.019 6.49244 13.5531 5.83713 11.5834H3.05304V13.7425C4.42425 16.466 7.24244 18.3334 10.5 18.3334Z" fill="#34A853"/>
<path fill-rule="evenodd" clip-rule="evenodd" d="M5.83715 11.5835C5.67048 11.0835 5.57578 10.5494 5.57578 10.0001C5.57578 9.45088 5.67048 8.91678 5.83715 8.41678V6.25769H3.05305C2.48866 7.38269 2.16669 8.65542 2.16669 10.0001C2.16669 11.3448 2.48866 12.6175 3.05305 13.7425L5.83715 11.5835Z" fill="#FBBC05"/>
<path fill-rule="evenodd" clip-rule="evenodd" d="M10.5 4.98102C11.7235 4.98102 12.822 5.40148 13.6856 6.22724L16.0758 3.83708C14.6326 2.49238 12.7462 1.66663 10.5 1.66663C7.24244 1.66663 4.42425 3.53405 3.05304 6.25754L5.83713 8.41664C6.49244 6.44694 8.32956 4.98102 10.5 4.98102Z" fill="#EA4335"/>
</svg>
